<svg width="18" height="18" viewBox="0 0 18 18" fill="none" xmlns="http://www.w3.org/2000/svg">
<path d="M8.99998 0C4.02943 0 0 4.02943 0 8.99998C0 13.9705 4.02943 18 8.99998 18C13.9705 18 18 13.9705 18 8.99998C17.9947 4.03165 13.9683 0.0053111 8.99998 0ZM8.99998 16.7143C4.7395 16.7143 1.2857 13.2605 1.2857 8.99998C1.2857 4.7395 4.7395 1.2857 8.99998 1.2857C13.2605 1.2857 16.7143 4.7395 16.7143 8.99998C16.7097 13.2586 13.2586 16.7097 8.99998 16.7143Z" fill="url(#paint0_linear_27_210)"/>
<path d="M13.9387 5.33118C13.6895 5.09056 13.2946 5.09056 13.0455 5.33118L7.07143 11.3052L4.95448 9.18828C4.70784 8.93289 4.30084 8.92585 4.04549 9.1725C3.79011 9.41914 3.78306 9.82614 4.02971 10.0815C4.03487 10.0868 4.04014 10.0921 4.04549 10.0973L6.61693 12.6687C6.86795 12.9197 7.27491 12.9197 7.52592 12.6687L13.9545 6.24013C14.2011 5.98479 14.1941 5.57783 13.9387 5.33118Z" fill="url(#paint1_linear_27_210)"/>
<defs>
<linearGradient id="paint0_linear_27_210" x1="-6.84521e-08" y1="18" x2="18" y2="-6.84521e-08" gradientUnits="userSpaceOnUse">
<stop stop-color="#1D4FCF"/>
<stop offset="1" stop-color="#0586E8"/>
</linearGradient>
<linearGradient id="paint1_linear_27_210" x1="3.84924" y1="12.8569" x2="11.245" y2="2.98555" gradientUnits="userSpaceOnUse">
<stop stop-color="#1D4FCF"/>
<stop offset="1" stop-color="#0586E8"/>
</linearGradient>
</defs>
</svg>
