<svg width="40" height="40" viewBox="0 0 40 40" fill="none" xmlns="http://www.w3.org/2000/svg">
<g clip-path="url(#clip0_27_173)">
<path d="M14.0139 25.557H4.76704C4.63689 25.557 4.53111 25.4512 4.53111 25.3211V23.4398C4.53111 23.1165 4.269 22.8544 3.94564 22.8544C3.62228 22.8544 3.36017 23.1165 3.36017 23.4398V25.3211C3.36017 26.0969 3.99134 26.728 4.76712 26.728H14.014C14.3374 26.728 14.5995 26.4659 14.5995 26.1426C14.5995 25.8192 14.3373 25.557 14.0139 25.557Z" fill="url(#paint0_linear_27_173)"/>
<path d="M15.5747 4.05523C15.898 4.05523 16.1601 3.79312 16.1601 3.46976C16.1601 3.1464 15.898 2.88429 15.5747 2.88429H11.5152C11.1919 2.88429 10.9297 3.1464 10.9297 3.46976C10.9297 3.79312 11.1919 4.05523 11.5152 4.05523H15.5747Z" fill="url(#paint1_linear_27_173)"/>
<path d="M6.92629 11.2687H16.8555C17.1789 11.2687 17.441 11.0066 17.441 10.6833C17.441 10.3599 17.1789 10.0978 16.8555 10.0978H6.92629C6.60293 10.0978 6.34082 10.3599 6.34082 10.6833C6.34082 11.0066 6.60293 11.2687 6.92629 11.2687Z" fill="url(#paint2_linear_27_173)"/>
<path d="M6.34082 8.44578C6.34082 8.76914 6.60293 9.03125 6.92629 9.03125H20.1636C20.487 9.03125 20.7491 8.76914 20.7491 8.44578C20.7491 8.12242 20.487 7.86031 20.1636 7.86031H6.92629C6.60293 7.86031 6.34082 8.12242 6.34082 8.44578Z" fill="url(#paint3_linear_27_173)"/>
<path d="M6.9576 12.3352C6.63424 12.3352 6.37213 12.5973 6.37213 12.9206C6.37213 13.244 6.63424 13.5061 6.9576 13.5061H12.6034C12.9267 13.5061 13.1889 13.244 13.1889 12.9206C13.1889 12.5973 12.9267 12.3352 12.6034 12.3352H6.9576Z" fill="url(#paint4_linear_27_173)"/>
<path d="M36.0545 16.6047C36.3778 16.6047 36.6399 16.3426 36.6399 16.0192V14.679C36.6399 13.9032 36.0088 13.272 35.233 13.272H23.73V1.40695C23.73 0.631172 23.0988 0 22.323 0H4.76706C3.99128 0 3.36011 0.631172 3.36011 1.40695V20.7292C3.36011 21.0526 3.62222 21.3147 3.94558 21.3147C4.26894 21.3147 4.53105 21.0526 4.53105 20.7292V1.40695C4.53105 1.27688 4.63683 1.17102 4.76698 1.17102H22.323C22.4532 1.17102 22.5589 1.27688 22.5589 1.40695V13.272H17.6771C16.9371 13.272 16.3302 13.8465 16.2754 14.5727H6.95761C6.63425 14.5727 6.37214 14.8348 6.37214 15.1581C6.37214 15.4815 6.63425 15.7436 6.95761 15.7436H16.27V18.2456L15.3539 18.738C15.2732 18.7814 15.1721 18.7541 15.1241 18.6761C14.896 18.3053 14.5006 18.0671 14.0661 18.0388C13.6297 18.0109 13.2087 18.1956 12.9346 18.5337L11.6481 20.1201C11.4444 20.3712 11.4828 20.7399 11.7341 20.9436C11.8426 21.0316 11.9729 21.0744 12.1025 21.0744C12.2729 21.0744 12.4418 21.0003 12.5576 20.8577L13.8441 19.2712C13.8933 19.2105 13.9571 19.2052 13.9901 19.2073C14.0235 19.2095 14.0858 19.2231 14.1267 19.2896C14.4994 19.8954 15.282 20.1062 15.9084 19.7695L16.27 19.5751V38.593C16.27 39.3688 16.9012 40 17.6771 40H35.233C36.0088 40 36.6399 39.3688 36.6399 38.593V18.6352C36.6399 18.3119 36.3778 18.0498 36.0545 18.0498C35.7311 18.0498 35.469 18.3119 35.469 18.6352V38.593C35.469 38.7231 35.3632 38.829 35.2331 38.829H17.6771C17.5469 38.829 17.441 38.7231 17.441 38.593V14.679C17.441 14.5489 17.5469 14.443 17.6771 14.443H35.233C35.3632 14.443 35.4689 14.5489 35.4689 14.679V16.0192C35.469 16.3426 35.731 16.6047 36.0545 16.6047Z" fill="url(#paint5_linear_27_173)"/>
<path d="M30.9421 33.7129L30.9936 33.8604C31.1055 34.1809 31.3355 34.4387 31.6412 34.5862C31.8162 34.6706 32.0039 34.7131 32.1925 34.7131C32.3335 34.7131 32.4752 34.6894 32.6123 34.6415C32.9328 34.5296 33.1906 34.2996 33.3381 33.9939C33.4857 33.6881 33.5053 33.3432 33.3933 33.0228L33.3417 32.8749C33.1945 32.4533 32.9396 32.0849 32.6 31.8013C32.6736 31.7572 32.7528 31.7199 32.837 31.6905C33.1423 31.584 33.3034 31.2501 33.1968 30.9448C33.0902 30.6395 32.7561 30.4784 32.451 30.585C32.072 30.7173 31.7464 30.9342 31.4867 31.2066C30.8267 31.0064 30.1116 31.0139 29.4431 31.2473C28.8609 31.4505 28.3585 31.804 27.9782 32.2698C27.405 32.1456 26.7918 32.1727 26.1989 32.3798C25.8936 32.4863 25.7325 32.8202 25.839 33.1255C25.9456 33.4309 26.2793 33.5918 26.5848 33.4854C26.8493 33.393 27.12 33.3561 27.3843 33.3688C27.17 34.0437 27.1789 34.7668 27.4166 35.4473L27.4913 35.6616C27.7184 36.3122 28.3307 36.7206 28.9839 36.7205C29.1562 36.7205 29.3314 36.6921 29.5031 36.6322C29.9014 36.4931 30.2217 36.2073 30.405 35.8273C30.5883 35.4473 30.6126 35.0187 30.4736 34.6206L30.3989 34.4063C30.1551 33.7082 29.6992 33.1437 29.1282 32.7599C29.3306 32.5827 29.5673 32.4443 29.8289 32.353C30.1746 32.2323 30.5395 32.2056 30.8901 32.2659C30.7654 32.7269 30.7731 33.2287 30.9421 33.7129ZM29.2933 34.792L29.3681 35.0063C29.4041 35.1093 29.3978 35.2202 29.3504 35.3184C29.303 35.4166 29.2202 35.4905 29.1172 35.5265C29.0143 35.5624 28.9033 35.5562 28.8051 35.5087C28.7068 35.4614 28.633 35.3785 28.597 35.2756L28.5223 35.0612C28.3718 34.6302 28.3635 34.1727 28.4943 33.7441C28.8528 33.9913 29.1391 34.3502 29.2933 34.792ZM32.2834 33.485C32.2753 33.502 32.2587 33.5246 32.2263 33.5359C32.1942 33.5472 32.1671 33.5398 32.15 33.5316C32.133 33.5234 32.1105 33.5068 32.0991 33.4743L32.0475 33.3268C31.9894 33.1605 31.9678 32.99 31.9782 32.8243C32.0916 32.9501 32.1792 33.0978 32.2361 33.2609L32.2877 33.4087C32.299 33.4409 32.2916 33.468 32.2834 33.485Z" fill="url(#paint6_linear_27_173)"/>
<path d="M28.4848 17.3272C28.8081 17.3272 29.0702 17.0651 29.0702 16.7417C29.0702 16.4184 28.8081 16.1562 28.4848 16.1562H24.4253C24.102 16.1562 23.8398 16.4184 23.8398 16.7417C23.8398 17.0651 24.102 17.3272 24.4253 17.3272H28.4848Z" fill="url(#paint7_linear_27_173)"/>
<path d="M33.6591 23.9552C33.6591 23.6319 33.397 23.3698 33.0737 23.3698H19.8363C19.513 23.3698 19.2509 23.6319 19.2509 23.9552C19.2509 24.2786 19.513 24.5407 19.8363 24.5407H33.0737C33.397 24.5407 33.6591 24.2786 33.6591 23.9552Z" fill="url(#paint8_linear_27_173)"/>
<path d="M33.0737 21.1323H19.8363C19.513 21.1323 19.2509 21.3944 19.2509 21.7177C19.2509 22.0411 19.513 22.3032 19.8363 22.3032H33.0737C33.397 22.3032 33.6591 22.0411 33.6591 21.7177C33.6591 21.3945 33.397 21.1323 33.0737 21.1323Z" fill="url(#paint9_linear_27_173)"/>
<path d="M19.8676 28.2105C19.5442 28.2105 19.2821 28.4727 19.2821 28.796C19.2821 29.1194 19.5442 29.3815 19.8676 29.3815H23.1444C23.4678 29.3815 23.7299 29.1194 23.7299 28.796C23.7299 28.4727 23.4678 28.2105 23.1444 28.2105H19.8676Z" fill="url(#paint10_linear_27_173)"/>
</g>
<defs>
<linearGradient id="paint0_linear_27_173" x1="3.36017" y1="26.728" x2="5.74682" y2="19.8033" gradientUnits="userSpaceOnUse">
<stop stop-color="#1D4FCF"/>
<stop offset="1" stop-color="#0586E8"/>
</linearGradient>
<linearGradient id="paint1_linear_27_173" x1="10.9297" y1="4.05523" x2="11.429" y2="1.82512" gradientUnits="userSpaceOnUse">
<stop stop-color="#1D4FCF"/>
<stop offset="1" stop-color="#0586E8"/>
</linearGradient>
<linearGradient id="paint2_linear_27_173" x1="6.34082" y1="11.2687" x2="6.58514" y2="8.95264" gradientUnits="userSpaceOnUse">
<stop stop-color="#1D4FCF"/>
<stop offset="1" stop-color="#0586E8"/>
</linearGradient>
<linearGradient id="paint3_linear_27_173" x1="6.34082" y1="9.03125" x2="6.52989" y2="6.70474" gradientUnits="userSpaceOnUse">
<stop stop-color="#1D4FCF"/>
<stop offset="1" stop-color="#0586E8"/>
</linearGradient>
<linearGradient id="paint4_linear_27_173" x1="6.37213" y1="13.5061" x2="6.76288" y2="11.2313" gradientUnits="userSpaceOnUse">
<stop stop-color="#1D4FCF"/>
<stop offset="1" stop-color="#0586E8"/>
</linearGradient>
<linearGradient id="paint5_linear_27_173" x1="3.36011" y1="40" x2="42.6929" y2="7.27525" gradientUnits="userSpaceOnUse">
<stop stop-color="#1D4FCF"/>
<stop offset="1" stop-color="#0586E8"/>
</linearGradient>
<linearGradient id="paint6_linear_27_173" x1="25.8062" y1="36.7205" x2="31.8329" y2="29.2376" gradientUnits="userSpaceOnUse">
<stop stop-color="#1D4FCF"/>
<stop offset="1" stop-color="#0586E8"/>
</linearGradient>
<linearGradient id="paint7_linear_27_173" x1="23.8398" y1="17.3272" x2="24.3391" y2="15.0971" gradientUnits="userSpaceOnUse">
<stop stop-color="#1D4FCF"/>
<stop offset="1" stop-color="#0586E8"/>
</linearGradient>
<linearGradient id="paint8_linear_27_173" x1="19.2509" y1="24.5407" x2="19.4399" y2="22.2142" gradientUnits="userSpaceOnUse">
<stop stop-color="#1D4FCF"/>
<stop offset="1" stop-color="#0586E8"/>
</linearGradient>
<linearGradient id="paint9_linear_27_173" x1="19.2509" y1="22.3032" x2="19.4399" y2="19.9767" gradientUnits="userSpaceOnUse">
<stop stop-color="#1D4FCF"/>
<stop offset="1" stop-color="#0586E8"/>
</linearGradient>
<linearGradient id="paint10_linear_27_173" x1="19.2821" y1="29.3815" x2="19.8587" y2="27.1914" gradientUnits="userSpaceOnUse">
<stop stop-color="#1D4FCF"/>
<stop offset="1" stop-color="#0586E8"/>
</linearGradient>
<clipPath id="clip0_27_173">
<rect width="40" height="40" fill="white"/>
</clipPath>
</defs>
</svg>
