<svg width="40" height="40" viewBox="0 0 40 40" fill="none" xmlns="http://www.w3.org/2000/svg">
<path d="M37.3333 15.0038H36.9333C38.0606 12.2898 36.7743 9.17567 34.0602 8.04842C31.5511 7.00634 28.6598 8.02167 27.3533 10.4038C27.1114 10.3592 26.866 10.3368 26.62 10.3372H25.9533C25.6189 8.04234 23.6524 6.33975 21.3333 6.33717C21.2887 6.33717 21.2447 6.33717 21.2 6.33717C19.3624 2.72792 14.9469 1.29175 11.3377 3.12934C9.29767 4.168 7.85975 6.09967 7.45 8.35184C7.33317 9.00684 7.304 9.6745 7.36333 10.3372C5.31258 10.3688 3.59992 11.9093 3.352 13.9452C3.24517 15.0594 3.60758 16.1678 4.352 17.0038H2.66667C1.19392 17.0038 0 18.1978 0 19.6705C0 21.1433 1.19392 22.3372 2.66667 22.3372H14.0947C14.3978 23.5109 15.4544 24.3326 16.6667 24.3372H32.6667C34.1394 24.3368 35.333 23.1425 35.3326 21.6698C35.3324 21.2019 35.2093 20.7423 34.9753 20.3372H37.3333C38.8061 20.3372 40 19.1433 40 17.6705C40 16.1978 38.8061 15.0038 37.3333 15.0038ZM32 9.00384C34.1999 8.9945 35.9908 10.7703 36.0003 12.9703C36.0033 13.685 35.8139 14.3874 35.4521 15.0038H30.5554C30.7797 13.7273 30.3659 12.4217 29.4474 11.5072C29.1993 11.2606 28.9201 11.0474 28.6168 10.8732C29.3473 9.709 30.6256 9.00275 32 9.00384ZM2.66667 21.0038C1.93025 21.0038 1.33333 20.4069 1.33333 19.6705C1.33333 18.9341 1.93025 18.3372 2.66667 18.3372H7.33333V17.0038C5.86058 17.0043 4.66633 15.8107 4.666 14.3378C4.666 14.2485 4.67042 14.1593 4.67933 14.0705C4.86542 12.6743 6.07108 11.6408 7.47933 11.6705H8.952L8.79 10.8705C8.63775 10.1175 8.62942 9.34259 8.76533 8.5865C9.3615 5.32684 12.4873 3.16775 15.7469 3.76392C17.7264 4.126 19.3926 5.45626 20.184 7.3065L20.384 7.77317L20.886 7.7065C22.6925 7.44392 24.3698 8.69551 24.6324 10.502C24.6566 10.6682 24.668 10.8359 24.6667 11.0038V11.6705H26.6193C28.0921 11.6705 29.286 12.8644 29.286 14.3372C29.286 15.8099 28.0921 17.0038 26.6193 17.0038H21.3333V18.3372C22.0697 18.3372 22.6667 18.9341 22.6667 19.6705C22.6667 20.4069 22.0697 21.0038 21.3333 21.0038H2.66667ZM37.3333 19.0038H32.6667V20.3372C33.4031 20.3372 34 20.9341 34 21.6705C34 22.4069 33.4031 23.0038 32.6667 23.0038H16.6667C16.1924 23.0024 15.7549 22.7483 15.5187 22.3372H21.3333C22.8061 22.3368 23.9997 21.1425 23.9993 19.6698C23.9991 19.2019 23.8759 18.7423 23.642 18.3372H26.6193C28.0485 18.3539 29.3718 17.5862 30.0667 16.3372H37.3333C38.0698 16.3372 38.6667 16.9341 38.6667 17.6705C38.6667 18.4069 38.0698 19.0038 37.3333 19.0038Z" fill="url(#paint0_linear_27_185)"/>
<path d="M15.22 29.2478L14.5534 28.0932L12.6667 29.1825V27.0038H11.3334V29.1825L9.4467 28.0932L8.78003 29.2478L10.6667 30.3372L8.78003 31.4265L9.4467 32.5812L11.3334 31.4918V33.6705H12.6667V31.4918L14.5534 32.5812L15.22 31.4265L13.3334 30.3372L15.22 29.2478Z" fill="url(#paint1_linear_27_185)"/>
<path d="M25.86 33.2478L25.1934 32.0932L23.306 33.1825V31.0038H21.9727V33.1825L20.086 32.0932L19.4194 33.2478L21.306 34.3372L19.4194 35.4265L20.086 36.5812L21.9727 35.4918V37.6705H23.306V35.4918L25.1934 36.5812L25.86 35.4265L23.9734 34.3372L25.86 33.2478Z" fill="url(#paint2_linear_27_185)"/>
<path d="M34.5634 27.9145L33.8967 26.7598L32.01 27.8492V25.6705H30.6767V27.8492L28.79 26.7598L28.1234 27.9145L30.01 29.0038L28.1234 30.0932L28.79 31.2478L30.6767 30.1585V32.3372H32.01V30.1585L33.8967 31.2478L34.5634 30.0932L32.6767 29.0038L34.5634 27.9145Z" fill="url(#paint3_linear_27_185)"/>
<defs>
<linearGradient id="paint0_linear_27_185" x1="-1.52116e-07" y1="24.3372" x2="18.5896" y2="-9.45031" gradientUnits="userSpaceOnUse">
<stop stop-color="#1D4FCF"/>
<stop offset="1" stop-color="#0586E8"/>
</linearGradient>
<linearGradient id="paint1_linear_27_185" x1="8.78003" y1="33.6705" x2="15.4427" y2="27.2343" gradientUnits="userSpaceOnUse">
<stop stop-color="#1D4FCF"/>
<stop offset="1" stop-color="#0586E8"/>
</linearGradient>
<linearGradient id="paint2_linear_27_185" x1="19.4194" y1="37.6705" x2="26.0821" y2="31.2337" gradientUnits="userSpaceOnUse">
<stop stop-color="#1D4FCF"/>
<stop offset="1" stop-color="#0586E8"/>
</linearGradient>
<linearGradient id="paint3_linear_27_185" x1="28.1234" y1="32.3372" x2="34.786" y2="25.901" gradientUnits="userSpaceOnUse">
<stop stop-color="#1D4FCF"/>
<stop offset="1" stop-color="#0586E8"/>
</linearGradient>
</defs>
</svg>
