<svg width="40" height="26" viewBox="0 0 40 26" fill="none" xmlns="http://www.w3.org/2000/svg">
<path d="M39.3548 11.064H36.129V6.5479C36.129 6.19161 36.4179 5.90274 36.7742 5.90274H37.4194V4.61242H36.7742C35.7052 4.61242 34.8387 5.47895 34.8387 6.5479V11.064H32.9032V9.77371H33.5484V8.48339H30.9677V9.77371H31.6129V11.064H29.6774V3.96726C29.6753 2.18662 28.2323 0.743552 26.4516 0.741455H18.7097C16.929 0.743552 15.486 2.18662 15.4839 3.96726V9.77371H13.5484C13.1921 9.77371 12.9032 10.0626 12.9032 10.4189V16.6673C11.9668 17.1147 11.2119 17.8695 10.7645 18.806H8.65419L7.74194 17.8937V17.1376L11.4239 13.4556C11.5448 13.3347 11.6129 13.1706 11.6129 12.9995V11.7092H10.3226V12.7324L9.41032 13.6447H1.29032V11.7092H0V16.8705C0 17.2268 0.288871 17.5156 0.645161 17.5156H3.87097V19.4511C3.87097 19.6222 3.93903 19.7863 4.06 19.9072L6.64065 22.4879C6.76161 22.6089 6.92564 22.6769 7.09677 22.6769H10.7645C11.8281 24.927 14.5145 25.8889 16.7646 24.8252C17.7077 24.3794 18.467 23.6202 18.9129 22.6769H22.9174C24.6969 25.3422 28.3 26.0603 30.9652 24.2809C32.3896 23.3299 33.321 21.7984 33.5103 20.0963H39.3548C39.7111 20.0963 40 19.8074 40 19.4511V11.7092C40 11.3529 39.7111 11.064 39.3548 11.064ZM1.29032 16.2253V14.935H8.12L6.82968 16.2253H1.29032ZM10.3742 21.3866H7.36387L5.16129 19.184V17.5156H6.45161V18.1608C6.45161 18.3319 6.51968 18.496 6.64065 18.6169L7.93097 19.9072C8.05194 20.0282 8.21597 20.0963 8.3871 20.0963H10.3742C10.3054 20.5236 10.3054 20.9593 10.3742 21.3866ZM16.7742 3.96726C16.7742 2.89831 17.6407 2.03178 18.7097 2.03178H26.4516C27.5206 2.03178 28.3871 2.89831 28.3871 3.96726V8.48339H27.0968V4.61242C27.0968 3.89976 26.5191 3.3221 25.8064 3.3221H19.3548C18.6422 3.3221 18.0645 3.89976 18.0645 4.61242V8.48339H16.7742V3.96726ZM25.8064 4.61242V8.48339H19.3548V4.61242H25.8064ZM16.7742 9.77371H28.3871V11.064H16.7742V9.77371ZM14.1935 11.064H15.4839V12.3544H14.1935V11.064ZM14.1935 13.6447H15.4839V16.2769C15.0565 16.2081 14.6209 16.2081 14.1935 16.2769V13.6447ZM14.8387 23.9672C13.0572 23.9672 11.6129 22.523 11.6129 20.7414C11.6129 18.9599 13.0572 17.5156 14.8387 17.5156C16.6202 17.5156 18.0645 18.9599 18.0645 20.7414C18.0624 22.5221 16.6194 23.9651 14.8387 23.9672ZM19.3032 21.3866C19.372 20.9593 19.372 20.5236 19.3032 20.0963H21.9735C22.0239 20.5365 22.1248 20.9695 22.2742 21.3866H19.3032ZM27.7419 23.9672C25.2477 23.9672 23.2258 21.9453 23.2258 19.4511C23.2258 16.9569 25.2477 14.935 27.7419 14.935C30.2361 14.935 32.2581 16.9569 32.2581 19.4511C32.2552 21.9441 30.2349 23.9644 27.7419 23.9672ZM38.7097 18.806H33.5103C33.1437 15.6202 30.264 13.3348 27.0781 13.7014C24.3971 14.0099 22.282 16.1249 21.9735 18.806H18.9129C18.4655 17.8695 17.7106 17.1147 16.7742 16.6673V12.3544H38.7097V18.806Z" fill="url(#paint0_linear_27_201)"/>
<path d="M37.4193 13.6447H34.8387V14.935H37.4193V13.6447Z" fill="url(#paint1_linear_27_201)"/>
<path d="M37.4193 16.2253H34.8387V17.5156H37.4193V16.2253Z" fill="url(#paint2_linear_27_201)"/>
<path d="M14.8387 18.806C13.7697 18.806 12.9032 19.6725 12.9032 20.7415C12.9032 21.8104 13.7697 22.6769 14.8387 22.6769C15.9076 22.6769 16.7742 21.8104 16.7742 20.7415C16.7742 19.6725 15.9076 18.806 14.8387 18.806ZM14.8387 21.3866C14.4824 21.3866 14.1935 21.0977 14.1935 20.7415C14.1935 20.3852 14.4824 20.0963 14.8387 20.0963C15.195 20.0963 15.4838 20.3852 15.4838 20.7415C15.4838 21.0977 15.195 21.3866 14.8387 21.3866Z" fill="url(#paint3_linear_27_201)"/>
<path d="M27.7419 16.2253C25.9604 16.2253 24.5161 17.6696 24.5161 19.4511C24.5161 21.2327 25.9604 22.6769 27.7419 22.6769C29.5234 22.6769 30.9677 21.2327 30.9677 19.4511C30.9656 17.6705 29.5226 16.2274 27.7419 16.2253ZM27.7419 21.3866C26.673 21.3866 25.8064 20.5201 25.8064 19.4511C25.8064 18.3822 26.673 17.5156 27.7419 17.5156C28.8109 17.5156 29.6774 18.3822 29.6774 19.4511C29.6774 20.5201 28.8109 21.3866 27.7419 21.3866Z" fill="url(#paint4_linear_27_201)"/>
<defs>
<linearGradient id="paint0_linear_27_201" x1="-1.52116e-07" y1="25.2585" x2="21.8469" y2="-10.3851" gradientUnits="userSpaceOnUse">
<stop stop-color="#1D4FCF"/>
<stop offset="1" stop-color="#0586E8"/>
</linearGradient>
<linearGradient id="paint1_linear_27_201" x1="34.8387" y1="14.935" x2="35.8709" y2="12.8705" gradientUnits="userSpaceOnUse">
<stop stop-color="#1D4FCF"/>
<stop offset="1" stop-color="#0586E8"/>
</linearGradient>
<linearGradient id="paint2_linear_27_201" x1="34.8387" y1="17.5156" x2="35.8709" y2="15.4511" gradientUnits="userSpaceOnUse">
<stop stop-color="#1D4FCF"/>
<stop offset="1" stop-color="#0586E8"/>
</linearGradient>
<linearGradient id="paint3_linear_27_201" x1="12.9032" y1="22.6769" x2="16.7742" y2="18.806" gradientUnits="userSpaceOnUse">
<stop stop-color="#1D4FCF"/>
<stop offset="1" stop-color="#0586E8"/>
</linearGradient>
<linearGradient id="paint4_linear_27_201" x1="24.5161" y1="22.6769" x2="30.9677" y2="16.2253" gradientUnits="userSpaceOnUse">
<stop stop-color="#1D4FCF"/>
<stop offset="1" stop-color="#0586E8"/>
</linearGradient>
</defs>
</svg>
