<svg width="30" height="30" viewBox="0 0 30 30" fill="none" xmlns="http://www.w3.org/2000/svg">
<path d="M15 30C6.72794 30 -4.09753e-07 23.2721 -4.09753e-07 15C-4.09753e-07 6.72794 6.72794 0 15 0C23.2721 0 30 6.72794 30 15C30 23.2721 23.2721 30 15 30ZM15 1.21324C7.39583 1.21324 1.21324 7.39583 1.21324 15C1.21324 22.6042 7.39583 28.7868 15 28.7868C22.6042 28.7868 28.7868 22.6042 28.7868 15C28.7868 7.39583 22.6042 1.21324 15 1.21324Z" fill="url(#paint0_linear_29_366)"/>
<path d="M17.1325 19.9816C17.0161 20.098 16.8568 20.1593 16.7036 20.1593C16.5504 20.1593 16.3911 20.098 16.2747 19.9816L11.722 15.4289C11.6056 15.3125 11.5443 15.1593 11.5443 15C11.5443 14.8407 11.6056 14.6875 11.722 14.5711L16.2747 10.0184C16.5137 9.77943 16.8936 9.77943 17.1325 10.0184C17.3715 10.2574 17.3715 10.6373 17.1325 10.8762L13.0088 15L17.1325 19.1238C17.3654 19.3628 17.3654 19.7488 17.1325 19.9816Z" fill="url(#paint1_linear_29_366)"/>
<defs>
<linearGradient id="paint0_linear_29_366" x1="30" y1="30" x2="1.14087e-07" y2="-1.14087e-07" gradientUnits="userSpaceOnUse">
<stop stop-color="#1D4FCF"/>
<stop offset="1" stop-color="#0586E8"/>
</linearGradient>
<linearGradient id="paint1_linear_29_366" x1="17.3118" y1="20.1593" x2="8.52205" y2="15.2472" gradientUnits="userSpaceOnUse">
<stop stop-color="#1D4FCF"/>
<stop offset="1" stop-color="#0586E8"/>
</linearGradient>
</defs>
</svg>
