<svg width="14" height="14" viewBox="0 0 14 14" fill="none" xmlns="http://www.w3.org/2000/svg">
<path d="M12.2237 8.94612C11.4618 8.94612 10.7137 8.82696 10.0048 8.59269C9.65746 8.47421 9.23043 8.5829 9.01842 8.80065L7.61917 9.85693C5.99643 8.99072 4.99686 7.99147 4.14247 6.38091L5.16767 5.01812C5.43403 4.75212 5.52957 4.36355 5.41511 3.99897C5.17983 3.28633 5.06031 2.5386 5.06031 1.77637C5.06034 1.22574 4.61237 0.777771 4.06177 0.777771H1.7764C1.2258 0.777771 0.777832 1.22574 0.777832 1.77634C0.777832 8.08768 5.9124 13.2222 12.2237 13.2222C12.7743 13.2222 13.2223 12.7742 13.2223 12.2236V9.94466C13.2223 9.39409 12.7743 8.94612 12.2237 8.94612Z" fill="white"/>
</svg>
