<svg width="22" height="14" viewBox="0 0 22 14" fill="none" xmlns="http://www.w3.org/2000/svg">
<path d="M18.2554 7.94231C17.8998 7.49315 18.0015 7.29331 18.2554 6.89181C18.26 6.88723 21.1961 2.83006 21.4986 1.45415L21.5004 1.45323C21.6508 0.951813 21.5004 0.583313 20.7735 0.583313H18.3682C17.7558 0.583313 17.4735 0.899563 17.3223 1.2534C17.3223 1.2534 16.0976 4.1849 14.3651 6.08515C13.8059 6.63423 13.5474 6.81023 13.2422 6.81023C13.0918 6.81023 12.8581 6.63423 12.8581 6.13281V1.45323C12.8581 0.851896 12.6867 0.583313 12.1798 0.583313H8.39758C8.0135 0.583313 7.78525 0.863813 7.78525 1.12506C7.78525 1.69523 8.6515 1.82631 8.74133 3.43048V6.91106C8.74133 7.67373 8.60292 7.81398 8.29583 7.81398C7.47817 7.81398 5.49358 4.87056 4.3175 1.50181C4.08008 0.84823 3.84817 0.58423 3.23125 0.58423H0.825C0.138417 0.58423 0 0.90048 0 1.25431C0 1.87948 0.817666 4.9879 3.80233 9.09456C5.7915 11.8977 8.59283 13.4166 11.1412 13.4166C12.6729 13.4166 12.8599 13.0793 12.8599 12.4991C12.8599 9.82056 12.7215 9.56756 13.4888 9.56756C13.8444 9.56756 14.4568 9.74356 15.8868 11.0956C17.5212 12.6989 17.7898 13.4166 18.7046 13.4166H21.1099C21.7956 13.4166 22.143 13.0793 21.9432 12.4138C21.4858 11.0141 18.3948 8.13481 18.2554 7.94231Z" fill="#C4C4C4"/>
</svg>
